<?xml version="1.0" encoding="UTF-8"?>
<svg width="39px" height="24px" viewBox="0 0 39 24" version="1.1" xmlns="http://www.w3.org/2000/svg" xmlns:xlink="http://www.w3.org/1999/xlink">
    <title>email</title>
    <g id="Page-1" stroke="none" stroke-width="1" fill="none" fill-rule="evenodd">
        <g id="email" transform="translate(4.5, 0)" fill="#FFFFFF">
            <path d="M1.09491,4.36378 C0.718993,4.07026 0.166659,4.23303 0.0847384,4.70288 C0.0290384,5.02234 0,5.35096 0,5.68636 L0,18.05 C0,18.7249 0.117585,19.3724 0.333387,19.973 C0.490634,20.4107 1.04402,20.4888 1.37227,20.1594 L9.54529,11.9569 C9.84175,11.6593 9.81128,11.1695 9.48022,10.911 L1.09491,4.36378 Z M1.92861,1.41848 C1.62697,1.68428 1.67297,2.15082 1.98985,2.39824 L14.7563,12.3663 C14.9311,12.4952 15.1696,12.4952 15.3444,12.3663 L28.1102,2.39825 C28.4271,2.15082 28.4731,1.68429 28.1714,1.4185 C27.1694,0.535596 25.8541,0 24.4136,0 L5.68636,0 C4.24592,0 2.93058,0.535588 1.92861,1.41848 Z M30.0153,4.70293 C29.9334,4.23307 29.381,4.0703 29.0051,4.36384 L20.6175,10.9132 C20.2869,11.1713 20.256,11.6603 20.5515,11.958 L28.717,20.1854 C29.0439,20.5149 29.5963,20.439 29.7557,20.003 C29.9785,19.394 30.1,18.7362 30.1,18.05 L30.1,5.68636 C30.1,5.35097 30.071,5.02237 30.0153,4.70293 Z M27.3825,22.9008 C27.7347,22.6847 27.7584,22.2007 27.4674,21.9074 L18.767,13.1411 C18.5172,12.8895 18.1188,12.8643 17.8393,13.0825 L16.6157,14.038 C15.6896,14.7381 14.4112,14.738 13.4852,14.0379 L13.4721,14.028 L12.2591,13.0808 C11.9801,12.863 11.5823,12.8877 11.3324,13.1385 L2.6102,21.8922 C2.31915,22.1843 2.34109,22.6672 2.69143,22.8847 C3.56117,23.4246 4.58736,23.7364 5.68636,23.7364 L24.4136,23.7364 C25.5017,23.7364 26.5183,23.4308 27.3825,22.9008 Z" id="Shape"></path>
        </g>
    </g>
</svg>