<svg width="150" height="150" viewBox="0 0 150 150" fill="none" xmlns="http://www.w3.org/2000/svg">
<path d="M110.045 27.0792C106.864 13.1564 98.894 1.83083 97.7955 0C96.0583 2.59722 89.7015 12.6029 86.4699 23.673C82.9402 36.063 82.4208 47.048 83.6385 57.82C84.8477 68.6347 89.4162 79.7474 89.4162 79.7474C91.8431 85.5379 95.4793 91.7968 97.8466 94.8623C101.317 90.3492 109.291 76.8947 111.778 59.3528C113.162 49.56 113.221 41.002 110.045 27.0792ZM97.7955 91.371C96.2329 88.4331 93.8059 82.8555 93.576 74.1697C93.5164 65.8246 96.8673 58.629 97.8466 57.1388C98.7194 58.629 101.606 64.8879 101.951 73.4459C102.185 81.7911 99.4091 88.3906 97.7955 91.371ZM109.121 50.7096C109.002 56.0318 108.367 61.652 107.558 65.0156C107.848 59.2251 107.154 51.0928 105.826 44.7062C104.497 38.3622 100.738 27.7178 97.7358 22.8215C94.9641 27.505 91.5494 36.7016 89.7611 44.6636C87.9644 52.6256 87.9132 62.2907 87.9132 65.1859C87.4364 62.759 86.2442 54.0307 86.5806 45.3023C86.8616 38.1067 88.5476 30.6557 89.4716 27.2495C92.997 15.8814 96.9865 8.60062 97.7358 7.45102C98.4852 8.60062 103.509 17.5844 106.115 26.994C108.708 36.4036 109.232 45.43 109.121 50.7096Z" fill="white"/>
<path d="M79.0103 98.0982V114.32C79.0316 114.32 79.0486 114.278 79.0699 114.278C84.7668 108.572 94.0061 108.572 99.7072 114.278C105.404 119.94 105.404 129.18 99.7072 134.885C99.6817 134.928 99.6561 134.928 99.6305 134.97C99.6007 134.97 99.5709 135.013 99.5454 135.055C93.8613 140.676 86.4358 143.486 79.0103 143.486C71.5508 143.486 64.0912 140.676 58.4029 134.97C48.3717 124.965 47.1838 109.424 54.8306 98.0982C55.861 96.5654 57.0489 95.1178 58.4029 93.7553C64.0912 88.05 71.5508 85.2398 79.0103 85.2398V46.239C50.3473 46.239 27.1128 69.4436 27.1128 98.0982C27.1128 126.753 50.3473 150 79.0103 150C93.955 150 107.418 143.656 116.887 133.565V98.0982H79.0103Z" fill="white"/>
</svg>
