<svg width="150" height="150" viewBox="0 0 150 150" fill="none" xmlns="http://www.w3.org/2000/svg">
<g opacity="0.5">
<path d="M94.6004 145C71.4435 122.6 59.8648 111.4 59.8643 111.4L37.2163 133.8C34.8865 136.873 35.4885 141.252 38.5609 143.582C39.7746 144.502 41.2561 145 42.7793 145C42.8173 145 42.8553 145 42.8933 145C60.129 145 77.3647 145 94.6004 145Z" fill="white"/>
</g>
<path fill-rule="evenodd" clip-rule="evenodd" d="M117 55.4L66.6 5L38.4608 34.3117C34.9567 37.9617 33 42.8255 33 47.8853L33 133.8C33 139.986 38.0144 145 44.2 145C40.3678 145 37.2612 141.893 37.2612 138.061C37.2612 136.216 37.9959 134.447 39.3029 133.145" fill="white"/>
</svg>
