<svg width="150" height="150" viewBox="0 0 150 150" fill="none" xmlns="http://www.w3.org/2000/svg">
<path d="M125.943 35.3664C128.985 39.3373 131.527 43.688 133.678 48.2991L75.0651 91.9688L50.4467 76.3454V57.6515L74.9348 73.1447L125.943 35.3664Z" fill="white"/>
<path d="M25.448 75.0651C25.448 74.1646 25.448 73.4051 25.5784 72.5046L10.7378 71.7343C10.7378 72.765 10.6074 73.915 10.6074 74.9349C10.6074 92.8693 17.843 109.133 29.5113 120.916L40.0387 110.283C31.0322 101.321 25.448 88.8983 25.448 75.0651Z" fill="white"/>
<path d="M74.9348 25.1135C75.8256 25.1135 76.5861 25.1135 77.477 25.2437L78.2375 10.2604C77.2163 10.2604 76.0755 10.1302 75.0651 10.1302C57.3021 10.1302 41.1903 17.432 29.5113 29.2147L40.0387 39.8473C48.9257 30.7553 61.3544 25.1135 74.9348 25.1135Z" fill="white"/>
<path d="M74.9348 125.017C74.0439 125.017 73.2834 125.017 72.3925 124.886L71.632 139.87C72.6533 139.87 73.794 140 74.8044 140C92.5675 140 108.69 132.698 120.358 120.916L109.831 110.283C100.944 119.505 88.6346 125.017 74.9348 125.017Z" fill="white"/>
<path d="M102.845 33.8257L115.404 24.4734C104.366 15.5116 90.286 10 74.9348 10V24.9833C85.3427 25.1135 94.9793 28.3141 102.845 33.8257Z" fill="white"/>
<path d="M139.392 75.0651C139.392 71.0941 139.012 67.2534 138.371 63.4126L124.541 73.7848C124.541 74.1646 124.541 74.6854 124.541 75.0651C124.541 89.7989 118.196 102.992 108.179 112.084L118.196 123.227C131.146 111.444 139.392 94.1496 139.392 75.0651Z" fill="white"/>
<path d="M74.9348 125.017C60.3441 125.017 47.2743 118.615 38.2679 108.493L27.2298 118.615C39.0283 131.809 56.0309 140 74.9348 140L74.9348 125.017Z" fill="white"/>
<path d="M41.8205 38.0462L31.7927 26.9037C18.723 38.8166 10.6074 55.9806 10.6074 75.0651L25.448 75.0651C25.448 60.4615 31.7927 47.1491 41.8205 38.0462Z" fill="white"/>
</svg>
