<svg width="315" height="206" viewBox="0 0 315 206" fill="none" xmlns="http://www.w3.org/2000/svg">
<g clip-path="url(#clip0_12014_387)">
<path d="M230.824 88.687V108.847H216.283C213.856 108.847 212.633 107.633 212.633 105.209V88.687C212.633 86.2825 211.444 85.201 209.041 85.201C206.652 85.201 205.468 86.329 205.468 88.687V105.058C205.468 112.313 209.101 115.95 216.221 115.95C222.502 115.95 229.613 113.958 230.956 113.482C231.277 115.128 232.4 115.972 234.346 115.972C234.368 115.972 234.388 115.948 234.409 115.948V115.972C236.82 115.972 238 114.802 238 112.376V88.687C238 85.96 236.338 85.201 234.433 85.201C232.023 85.1785 230.824 86.347 230.824 88.687ZM195.79 85.1995C193.363 85.1995 192.162 86.347 192.136 88.6855V108.845H177.601C175.17 108.845 173.945 107.632 173.945 105.208V88.687C173.945 86.2825 172.739 85.201 170.359 85.201C167.969 85.201 166.768 86.329 166.768 88.687V105.058C166.768 112.313 170.4 115.95 177.535 115.95C183.796 115.95 190.912 113.958 192.245 113.482C192.576 115.15 193.775 115.994 195.729 115.972C198.114 115.972 199.321 114.802 199.321 112.465V88.7065C199.321 86.1295 197.87 85.1995 195.79 85.1995ZM153.628 103.996C153.628 106.421 151.18 108.866 148.749 108.866H135.107V92.347H148.749C151.18 92.347 153.628 94.729 153.628 97.0015V103.996ZM148.749 85.2205C141.544 85.2205 134.977 87.6895 134.977 87.6895C134.977 87.6895 133.645 85.2205 131.476 85.2205C129.283 85.2205 127.927 86.26 127.927 88.6855V121.97C127.927 124.33 129.133 125.5 131.517 125.5C133.902 125.5 135.107 124.286 135.107 121.882V113.48C138.236 114.802 144.521 115.97 148.789 115.97C155.734 115.97 160.786 111.118 160.786 103.865V97.1095C160.787 89.9845 155.947 85.2205 148.749 85.2205ZM114.355 105.23C114.355 107.657 113.153 108.868 110.722 108.868H102.363V92.347H110.722C113.153 92.347 114.355 93.4945 114.355 95.791V105.23ZM86.797 108.868C84.3865 108.868 83.1625 107.657 83.1625 105.23V95.791C83.1625 93.4945 84.3865 92.347 86.797 92.347H95.1805V108.868H86.797ZM98.77 80.5C96.361 80.5 95.179 81.6925 95.179 84.118V87.691C93.5605 86.3905 88.7215 85.201 86.7955 85.222C79.5955 85.3075 76 88.7725 76 95.875V105.08C76 112.333 79.5955 116.124 86.7535 115.972C89.9275 115.908 93.9085 114.132 95.179 113.482V121.972C95.179 124.332 96.361 125.501 98.77 125.501C101.155 125.501 102.363 124.332 102.363 121.972V113.482C103.83 114.196 107.701 115.972 110.762 115.972C117.944 115.972 121.535 112.334 121.535 105.08V95.875C121.535 88.7725 117.925 85.288 110.72 85.222C108.117 85.201 104.899 86.0455 102.361 87.691V84.0085C102.362 81.67 101.155 80.5 98.77 80.5Z" fill="white"/>
</g>
<defs>
<clipPath id="clip0_12014_387">
<rect width="162" height="45" fill="white" transform="translate(76 80.5)"/>
</clipPath>
</defs>
</svg>
