<svg width="315" height="206" viewBox="0 0 315 206" fill="none" xmlns="http://www.w3.org/2000/svg">
<g clip-path="url(#clip0_12014_411)">
<path d="M242.202 75.7863V78.4639H240.297H238.393V86.606V94.748H240.276H242.147L245.618 89.3273C247.533 86.3546 249.133 83.8956 249.187 83.8628C249.231 83.83 249.274 86.2672 249.274 89.2726V94.748H251.179H253.083V86.606V78.4639H251.19H249.307L245.901 83.7317C244.03 86.6388 242.43 89.0868 242.354 89.1743C242.223 89.3054 242.202 88.5076 242.202 83.8956V78.4639H244.051H245.901V75.7863V73.1087H244.051H242.202V75.7863Z" fill="white"/>
<path d="M162.463 78.2465C160.863 78.5416 159.655 79.1646 158.556 80.2793C157.61 81.2411 156.87 82.64 156.587 84.0279L156.402 84.9132H155.183H153.954V81.6892V78.4651H152.049H150.145V86.6072V94.7493H152.049H153.954V91.3066V87.864H155.15H156.337L156.402 88.2684C156.717 90.323 157.37 91.7438 158.578 92.946C160.101 94.487 161.505 95.0225 164.019 95.0116C165.738 95.0116 166.467 94.8695 167.718 94.2684C169.655 93.3504 170.907 91.711 171.494 89.3066C171.69 88.5307 171.734 88.0389 171.734 86.6072C171.734 84.7165 171.603 83.9842 171.07 82.629C170.232 80.4979 168.535 78.9897 166.304 78.3995C165.52 78.2028 163.268 78.1045 162.463 78.2465ZM165.553 81.5689C167 82.2356 167.74 83.7329 167.849 86.2247C167.958 88.9897 167.207 90.8148 165.629 91.6017C164.998 91.9077 164.813 91.9514 164.03 91.9514C163.312 91.9514 163.039 91.8968 162.55 91.6673C161.342 91.1099 160.602 89.9733 160.297 88.2247C160.014 86.5744 160.243 84.3886 160.831 83.2411C161.124 82.6509 161.864 81.8749 162.365 81.6126C163.29 81.1427 164.574 81.1208 165.553 81.5689Z" fill="white"/>
<path d="M57.1089 88.1909V98.027H62.0055H66.9021V102.945V107.863H62.0055H57.1089V117.699V127.535H62.0055H66.9021V117.699V107.863H72.0599H77.2068L77.3483 108.541C77.74 110.617 79.2525 114.169 80.6127 116.278C84.4865 122.256 90.5909 126.18 97.6965 127.273C99.4266 127.546 102.93 127.535 104.661 127.273C108.839 126.628 112.55 125.076 115.868 122.584C117.109 121.655 119.209 119.623 120.188 118.409C124.465 113.087 126.347 106.213 125.379 99.4477C124.791 95.3603 123.235 91.5898 120.732 88.1909C119.742 86.8576 117.196 84.3002 115.868 83.3056C112.452 80.7701 108.817 79.2619 104.552 78.6171C102.854 78.3548 99.5354 78.3548 97.7509 78.6171C89.7095 79.7975 82.8107 84.8138 79.2634 92.0488C78.4147 93.7865 77.8815 95.2073 77.4789 96.8248L77.1851 98.027H72.049H66.9021V88.1909V78.3548H62.0055H57.1089V88.1909ZM103.953 88.4641C107 89.1089 109.361 90.3876 111.527 92.5516C113.703 94.7373 114.943 97.0871 115.618 100.224C115.879 101.491 115.89 104.388 115.618 105.677C114.976 108.781 113.67 111.207 111.472 113.382C110.188 114.672 109.198 115.393 107.707 116.147C106.685 116.661 104.911 117.262 103.736 117.491C102.582 117.721 99.5137 117.688 98.3602 117.437C95.4114 116.803 93.0937 115.568 90.9935 113.524C88.7737 111.36 87.3918 108.836 86.7389 105.787C86.4669 104.475 86.4669 101.404 86.7389 100.103C88.0773 93.8412 93.0501 89.1526 99.2743 88.3111C100.352 88.1581 102.92 88.2455 103.953 88.4641Z" fill="white"/>
<path d="M172.8 79.0322C174.758 81.3601 178.654 86.1032 178.654 86.1579C178.654 86.2016 177.207 88.1251 175.444 90.4311C173.681 92.748 172.234 94.6606 172.234 94.6934C172.234 94.7262 173.246 94.748 174.497 94.7371H176.75L179.524 91.0541L182.299 87.3819L182.332 91.065L182.354 94.748H184.203H186.053V91.1306C186.053 88.3109 186.086 87.524 186.184 87.5568C186.26 87.5896 187.544 89.218 189.035 91.1743L191.744 94.748H194.018C195.259 94.748 196.282 94.7262 196.282 94.6934C196.282 94.6606 194.813 92.7153 193.006 90.3655C190.112 86.5623 189.764 86.0705 189.894 85.9065C189.981 85.8082 191.396 84.0923 193.061 82.0923L196.064 78.4639H193.855H191.646L188.948 81.8519C187.468 83.7098 186.206 85.2399 186.151 85.2399C186.097 85.2399 186.053 83.7644 186.053 81.8519V78.4639H184.203H182.354V81.8519C182.354 83.7098 182.321 85.2399 182.277 85.2399C182.223 85.2289 180.972 83.7098 179.481 81.8519L176.782 78.4639H174.552H172.321L172.8 79.0322Z" fill="white"/>
<path d="M198.349 86.606V94.748H200.253H202.158V91.3054V87.8628H205.585H209.013V91.3054V94.748H210.917H212.821V86.606V78.4639H210.917H209.013V81.6879V84.912H205.585H202.158V81.6879V78.4639H200.253H198.349V86.606Z" fill="white"/>
<path d="M216.304 86.606V94.748H220.167C223.268 94.748 224.204 94.7153 224.878 94.5732C227.087 94.1251 228.665 92.6825 229.198 90.6497C229.405 89.8409 229.405 88.2125 229.198 87.4366C228.806 85.9502 227.838 84.759 226.489 84.0923C225.335 83.524 224.519 83.3819 222.158 83.3819H220.112V80.9229V78.4639H218.208H216.304V86.606ZM224.03 86.5076C224.617 86.7808 225.259 87.4584 225.455 88.0377C225.825 89.1306 225.498 90.4858 224.704 91.1415C224.051 91.677 223.529 91.7972 221.723 91.7972H220.112V88.9994V86.2016L221.831 86.2453C223.246 86.2781 223.627 86.3327 224.03 86.5076Z" fill="white"/>
<path d="M231.103 86.606V94.748H233.007H234.911V86.606V78.4639H233.007H231.103V86.606Z" fill="white"/>
<path d="M212.245 111.033C210.21 111.404 208.676 112.322 207.794 113.688C207.435 114.257 207.054 115.36 207.054 115.852V116.169H208.784H210.504L210.689 115.699C210.928 115.065 211.44 114.563 212.169 114.213C212.669 113.983 212.93 113.94 213.757 113.94C214.65 113.929 214.813 113.972 215.389 114.257C215.814 114.475 216.129 114.748 216.358 115.054C216.663 115.503 216.684 115.612 216.717 116.65L216.761 117.776L215.139 117.852C211.483 118.027 210.286 118.224 208.937 118.858C206.532 120.005 205.683 122.595 206.891 125.098C207.718 126.781 209.47 127.754 211.712 127.754C213.725 127.754 215.542 126.858 216.51 125.382L216.848 124.88V126.202V127.535H218.697H220.547V121.634C220.547 117.743 220.504 115.546 220.428 115.164C220.243 114.289 219.622 113.175 218.98 112.606C218.349 112.027 217.272 111.459 216.347 111.197C215.596 110.989 213.039 110.891 212.245 111.033ZM216.739 121.153C216.739 122.311 216.608 122.77 216.097 123.459C215.792 123.852 215.487 124.093 214.845 124.421C214.018 124.847 213.953 124.858 212.941 124.858C212.027 124.847 211.831 124.814 211.331 124.552C210.7 124.224 210.395 123.852 210.221 123.197C210.047 122.552 210.243 121.83 210.711 121.36C211.331 120.738 212.06 120.541 214.399 120.388C215.531 120.311 216.532 120.235 216.608 120.224C216.706 120.213 216.739 120.464 216.739 121.153Z" fill="white"/>
<path d="M232.353 110.989C230.449 111.229 229.067 112.038 228.099 113.492L227.729 114.038V112.639V111.251H225.825H223.92V122.071V132.891H225.825H227.729V128.902C227.729 126.705 227.762 124.912 227.816 124.912C227.859 124.912 228.034 125.131 228.197 125.404C228.861 126.443 230.21 127.361 231.516 127.634C232.321 127.798 233.746 127.776 234.573 127.59C236.238 127.197 237.762 125.929 238.578 124.257C239.328 122.738 239.535 121.71 239.535 119.393C239.535 117.71 239.492 117.284 239.285 116.443C238.458 113.153 236.358 111.229 233.333 111C232.974 110.967 232.538 110.967 232.353 110.989ZM233.083 114.366C234.062 114.705 234.856 115.623 235.368 117C235.574 117.568 235.607 117.863 235.607 119.393C235.607 121.273 235.487 121.809 234.856 122.891C234.018 124.344 232.114 125 230.449 124.432C229.72 124.18 228.763 123.262 228.404 122.475C227.772 121.12 227.587 118.956 227.979 117.492C228.697 114.792 230.721 113.557 233.083 114.366Z" fill="white"/>
<path d="M150.145 119.393V127.535L152.017 127.513L153.888 127.481L157.381 122.049C159.296 119.054 160.896 116.617 160.95 116.606C160.994 116.606 161.026 119.065 161.026 122.071V127.535H162.876H164.726V119.393V111.251L162.865 111.273L160.994 111.306L157.533 116.661C155.629 119.601 154.019 122.027 153.964 122.049C153.877 122.082 153.845 120.431 153.845 116.672V111.251H151.995H150.145V119.393Z" fill="white"/>
<path d="M166.902 112.726V114.202H169.405H171.908V120.868V127.535H173.812H175.716V120.868V114.202H178.219H180.722V112.726V111.251H173.812H166.902V112.726Z" fill="white"/>
<path d="M189.318 117.918V124.584H185.02H180.722V126.06V127.535H186.924H193.126V120.868V114.202H196.445H199.764V120.868V127.535H201.668H203.573V119.393V111.251H196.445H189.318V117.918Z" fill="white"/>
<path d="M242.419 119.393V127.535H244.323H246.227L246.249 123.874L246.282 120.202L249.307 123.874L252.332 127.535H254.671H257.011L255.988 126.3C255.433 125.634 253.877 123.743 252.539 122.125C251.2 120.497 250.047 119.098 249.971 119.011C249.829 118.836 250.308 118.278 255.226 112.858L256.695 111.251H254.465H252.245L249.263 114.661L246.282 118.071L246.249 114.661L246.227 111.251H244.323H242.419V119.393Z" fill="white"/>
</g>
<defs>
<clipPath id="clip0_12014_411">
<rect width="200" height="60" fill="white" transform="translate(57 73)"/>
</clipPath>
</defs>
</svg>
