<svg width="315" height="206" viewBox="0 0 315 206" fill="none" xmlns="http://www.w3.org/2000/svg">
<path d="M104.276 89.6971H119.441L119.936 104.323H120.127L126.43 89.6971H141.556L136.13 116.432H126.964L131.24 95.424H131.01L121.464 116.432H112.949L112.105 95.424H111.837L107.561 116.432H98.8525L104.276 89.6971Z" fill="white"/>
<path d="M162.553 106.5H163.164C166.029 106.5 167.633 103.37 167.633 101.042C167.633 99.322 166.641 98.0228 164.845 98.0228H164.272L162.553 106.5ZM154.952 98.023H154.381C151.668 98.023 149.836 100.888 149.836 103.41C149.836 104.972 150.791 106.5 152.625 106.5H153.235L154.952 98.023ZM150.677 116.891L151.517 112.609H149.683C142.654 112.609 140.095 108.642 140.095 104.67C140.095 98.787 144.832 91.9113 154.152 91.9113H155.756L156.556 87.9021H166.797L165.994 91.9113H167.597C171.339 91.9113 177.372 92.7895 177.372 99.8947C177.372 106.119 172.906 112.608 163.776 112.608H161.751L160.911 116.891L150.677 116.891Z" fill="white"/>
<path d="M207.859 89.6971L206.255 97.6027H197.24L193.423 116.432H183.187L187.005 97.6027H177.989L179.594 89.6971H207.859Z" fill="white"/>
<path d="M220.393 89.6971L217.298 104.971H217.451L227.309 89.6971H239.262L233.84 116.432H223.602L226.656 101.46H226.505L216.691 116.432H204.735L210.156 89.6971H220.393Z" fill="white"/>
<path d="M247.202 126.507L248.656 118.929L262.98 123.238L247.202 126.507Z" fill="white"/>
<path d="M243.809 120.655H95.8308C93.0977 120.655 91.9087 123.687 90.7614 126.62C90.3597 127.642 89.7295 129.248 89.248 129.91C88.3747 129.039 87.7332 124.877 87.4828 123.236L87.3431 122.33C86.4626 116.699 85.6696 110.756 84.9014 105.01C81.5461 79.8858 79.9555 71.089 75.286 71.0008C69.4295 70.8927 67.3478 81.2666 61.1712 112.056L60.3621 116.08C59.4462 120.655 57.3599 120.655 56.4695 120.655H53.6893L53 124.616H56.4695C58.7922 124.616 62.8943 123.608 64.2485 116.858L65.0544 112.835C68.8641 93.8521 72.4637 75.9459 75.006 75.0488C77.2151 77.4016 79.381 93.6017 80.9743 105.533C81.7466 111.301 82.5412 117.264 83.4316 122.942L83.5667 123.832C84.2583 128.375 85.1177 134.028 89.3804 134.028C92.1141 134.028 93.3025 130.995 94.4507 128.064C94.8897 126.943 95.6044 125.127 96.0995 124.616H243.122L243.809 120.655Z" fill="white"/>
<path d="M99.2147 128.466L99.6314 130.974L99.643 130.979L100.868 128.466H102.15L101.51 132.393H100.633L101.138 129.336H101.126L99.6719 132.393H99.0824L98.607 129.342L98.5955 129.336L98.098 132.393H97.3772L98.0182 128.466H99.2147Z" fill="white"/>
<path d="M103.446 131.438C103.572 131.661 103.75 131.753 103.996 131.753C104.213 131.753 104.402 131.684 104.574 131.461C104.843 131.117 104.974 130.414 104.974 129.978C104.974 129.818 104.951 129.567 104.848 129.395C104.769 129.258 104.596 129.097 104.299 129.097C104.053 129.097 103.864 129.207 103.721 129.389C103.452 129.732 103.321 130.437 103.321 130.877C103.321 131.049 103.343 131.256 103.446 131.438ZM105.37 128.725C105.628 128.938 105.925 129.366 105.925 130.082C105.925 130.671 105.714 131.335 105.433 131.713C105.243 131.965 104.78 132.451 103.904 132.451C103.493 132.451 103.121 132.342 102.805 132.017C102.484 131.684 102.37 131.272 102.37 130.785C102.37 130.259 102.479 129.504 103.039 128.942C103.446 128.537 103.853 128.41 104.356 128.41C104.648 128.41 105.026 128.439 105.37 128.725Z" fill="white"/>
<path d="M108.884 129.939C108.884 129.802 108.856 129.567 108.752 129.389C108.638 129.188 108.478 129.097 108.232 129.097C107.871 129.097 107.676 129.343 107.545 129.612C107.355 130.001 107.264 130.557 107.264 130.929C107.264 131.112 107.293 131.376 107.448 131.554C107.55 131.674 107.71 131.753 107.894 131.753C108.192 131.753 108.569 131.575 108.707 130.975L109.525 131.124C109.462 131.335 109.365 131.541 109.222 131.742C108.849 132.263 108.409 132.451 107.865 132.451C107.235 132.451 106.864 132.131 106.674 131.891C106.446 131.599 106.314 131.198 106.314 130.77C106.314 130.191 106.509 129.544 106.858 129.103C107.19 128.685 107.654 128.41 108.295 128.41C108.844 128.41 109.158 128.628 109.319 128.793C109.571 129.052 109.702 129.48 109.714 129.842L108.884 129.939Z" fill="white"/>
<path d="M111.432 128.466L111.175 130.035H111.438C111.73 130.035 111.913 129.982 112.233 129.326C112.405 128.97 112.536 128.73 112.667 128.604C112.783 128.494 112.892 128.466 112.978 128.466H113.716C113.601 128.546 113.504 128.648 113.287 129.01C113.063 129.382 113.08 129.382 112.887 129.702C112.703 130.006 112.588 130.104 112.543 130.143C112.445 130.224 112.319 130.269 112.21 130.292V130.315C112.439 130.356 112.588 130.526 112.657 130.635C112.755 130.784 112.794 130.933 112.828 131.076C112.88 131.305 112.903 131.46 112.937 131.614C113.03 132.062 113.132 132.255 113.23 132.393H112.383C112.301 132.387 112.187 132.341 112.108 132.033C112.061 131.849 112.033 131.632 111.987 131.328C111.953 131.082 111.913 130.916 111.815 130.825C111.73 130.745 111.57 130.704 111.421 130.704H111.065L110.791 132.393H109.875L110.516 128.466H111.432Z" fill="white"/>
<path d="M114.847 131.438C114.973 131.661 115.149 131.753 115.396 131.753C115.613 131.753 115.802 131.684 115.973 131.461C116.243 131.117 116.375 130.414 116.375 129.978C116.375 129.818 116.351 129.567 116.248 129.395C116.168 129.258 115.996 129.097 115.699 129.097C115.453 129.097 115.264 129.207 115.122 129.389C114.852 129.732 114.72 130.437 114.72 130.877C114.72 131.049 114.742 131.256 114.847 131.438ZM116.77 128.725C117.027 128.938 117.325 129.366 117.325 130.082C117.325 130.671 117.113 131.335 116.832 131.713C116.643 131.965 116.18 132.451 115.304 132.451C114.891 132.451 114.519 132.342 114.205 132.017C113.884 131.684 113.77 131.272 113.77 130.785C113.77 130.259 113.878 129.504 114.44 128.942C114.847 128.537 115.253 128.41 115.757 128.41C116.048 128.41 116.426 128.439 116.77 128.725Z" fill="white"/>
<path d="M118.869 130.035H119.552C119.694 130.035 119.894 130.023 120.049 129.892C120.134 129.822 120.203 129.715 120.203 129.56C120.203 129.262 119.951 129.154 119.682 129.154H119.013L118.869 130.035ZM118.594 131.694H119.338C119.528 131.694 119.705 131.694 119.865 131.545C119.968 131.448 120.032 131.322 120.032 131.179C120.032 130.991 119.94 130.869 119.854 130.807C119.716 130.71 119.545 130.704 119.424 130.704H118.76L118.594 131.694ZM119.894 128.466C120.163 128.466 120.426 128.512 120.638 128.627C120.85 128.747 121.102 128.981 121.102 129.423C121.102 129.754 120.953 129.971 120.821 130.097C120.684 130.23 120.495 130.327 120.306 130.366V130.379C120.444 130.418 120.575 130.486 120.672 130.579C120.867 130.755 120.947 131.014 120.947 131.254C120.947 131.523 120.816 131.837 120.627 132.033C120.323 132.347 119.917 132.393 119.54 132.393H117.594L118.24 128.466H119.894Z" fill="white"/>
<path d="M124.047 129.939C124.047 129.802 124.018 129.567 123.916 129.389C123.801 129.188 123.641 129.097 123.395 129.097C123.034 129.097 122.84 129.343 122.708 129.612C122.52 130.001 122.428 130.557 122.428 130.929C122.428 131.112 122.456 131.376 122.611 131.554C122.714 131.674 122.874 131.753 123.058 131.753C123.355 131.753 123.733 131.575 123.87 130.975L124.689 131.124C124.626 131.335 124.529 131.541 124.385 131.742C124.013 132.263 123.573 132.451 123.028 132.451C122.4 132.451 122.027 132.131 121.838 131.891C121.609 131.599 121.478 131.198 121.478 130.77C121.478 130.191 121.671 129.544 122.022 129.103C122.354 128.685 122.817 128.41 123.458 128.41C124.007 128.41 124.323 128.628 124.483 128.793C124.734 129.052 124.866 129.48 124.878 129.842L124.047 129.939Z" fill="white"/>
<path d="M126.595 128.466L126.338 130.035H126.601C126.892 130.035 127.076 129.982 127.396 129.326C127.568 128.97 127.7 128.73 127.832 128.604C127.946 128.494 128.055 128.466 128.141 128.466H128.879C128.765 128.546 128.668 128.648 128.449 129.01C128.227 129.382 128.244 129.382 128.049 129.702C127.866 130.006 127.752 130.104 127.706 130.143C127.609 130.224 127.482 130.269 127.374 130.292V130.315C127.603 130.356 127.752 130.526 127.82 130.635C127.918 130.784 127.958 130.933 127.992 131.076C128.044 131.305 128.066 131.46 128.101 131.614C128.192 132.062 128.295 132.255 128.393 132.393H127.546C127.466 132.387 127.351 132.341 127.271 132.033C127.225 131.849 127.196 131.632 127.151 131.328C127.116 131.082 127.076 130.916 126.98 130.825C126.892 130.745 126.733 130.704 126.585 130.704H126.229L125.954 132.393H125.039L125.68 128.466H126.595Z" fill="white"/>
<path d="M130.373 128.466L130.03 130.561C130.013 130.652 129.973 130.83 129.945 130.921C130.07 130.716 130.104 130.658 130.138 130.619L131.633 128.747L131.684 128.466H132.6L131.953 132.393H131.037L131.387 130.263C131.404 130.143 131.432 130.011 131.461 129.903C131.415 129.982 131.317 130.149 131.272 130.201L129.778 132.077L129.727 132.393H128.81L129.457 128.466H130.373Z" fill="white"/>
<path d="M134.663 127.482C134.657 127.539 134.663 127.624 134.742 127.705C134.795 127.758 134.885 127.808 135.035 127.808C135.12 127.808 135.234 127.79 135.332 127.705C135.418 127.63 135.446 127.545 135.452 127.482H136.155C136.099 127.75 135.944 127.928 135.772 128.042C135.555 128.185 135.258 128.253 134.982 128.253C134.725 128.253 134.4 128.197 134.209 128.037C134.084 127.934 133.964 127.738 133.969 127.482H134.663ZM134.296 128.466L133.952 130.561C133.935 130.652 133.895 130.83 133.866 130.921C133.993 130.716 134.027 130.658 134.06 130.619L135.555 128.747L135.606 128.466H136.523L135.876 132.393H134.96L135.309 130.263C135.326 130.143 135.354 130.011 135.383 129.903C135.338 129.982 135.24 130.149 135.195 130.201L133.7 132.077L133.649 132.393H132.732L133.38 128.466H134.296Z" fill="white"/>
<path d="M140.566 131.295C140.933 131.285 141.195 131.186 141.39 130.911C141.521 130.724 141.597 130.437 141.597 130.197C141.597 129.83 141.442 129.635 141.305 129.548C141.195 129.48 141.024 129.441 140.869 129.447L140.566 131.295ZM140.011 129.451C139.754 129.451 139.479 129.577 139.306 129.738C139.095 129.939 138.986 130.247 138.986 130.528C138.986 130.809 139.095 130.981 139.187 131.078C139.324 131.227 139.529 131.3 139.713 131.289L140.011 129.451ZM141.081 128.353L141.006 128.812C141.425 128.799 141.94 128.938 142.227 129.314C142.432 129.583 142.467 129.893 142.467 130.179C142.467 130.385 142.438 131.037 141.889 131.506C141.568 131.781 141.098 131.941 140.492 131.93L140.412 132.417H139.495L139.576 131.924C139.027 131.93 138.683 131.753 138.476 131.546C138.289 131.358 138.116 131.044 138.116 130.563C138.116 130.139 138.259 129.532 138.923 129.12C139.255 128.913 139.599 128.812 140.085 128.816L140.166 128.353H141.081Z" fill="white"/>
<path d="M144.293 128.466L143.949 130.561C143.931 130.652 143.892 130.83 143.862 130.921C143.989 130.716 144.023 130.658 144.058 130.619L145.551 128.747L145.603 128.466H146.519L145.873 132.393H144.956L145.305 130.263C145.322 130.143 145.351 130.011 145.379 129.903C145.334 129.982 145.237 130.149 145.19 130.201L143.696 132.077L143.646 132.393H142.73L143.376 128.466H144.293Z" fill="white"/>
<path d="M146.908 129.538C146.97 129.287 147.119 128.938 147.491 128.69C147.737 128.53 148.087 128.41 148.585 128.41C149.009 128.41 149.271 128.495 149.449 128.599C149.805 128.812 149.901 129.12 149.901 129.372C149.901 129.67 149.781 129.899 149.614 130.065C149.54 130.139 149.38 130.276 149.129 130.346V130.357C149.278 130.39 149.449 130.471 149.564 130.597C149.649 130.689 149.764 130.861 149.764 131.152C149.764 131.512 149.597 131.936 149.169 132.199C148.813 132.418 148.384 132.451 148.029 132.451C147.623 132.451 147.205 132.394 146.885 132.05C146.708 131.856 146.592 131.599 146.558 131.335L147.343 131.204C147.388 131.382 147.485 131.496 147.525 131.541C147.697 131.725 147.891 131.753 148.081 131.753C148.424 131.753 148.596 131.628 148.659 131.575C148.796 131.461 148.848 131.306 148.848 131.18C148.848 131.044 148.796 130.911 148.711 130.838C148.567 130.712 148.321 130.712 148.196 130.712H147.761L147.863 130.042H148.333C148.505 130.042 148.728 129.991 148.848 129.899C148.945 129.823 149.031 129.693 149.031 129.504C149.031 129.383 148.986 129.281 148.883 129.2C148.768 129.114 148.642 129.097 148.511 129.097C148.316 129.097 148.138 129.126 147.955 129.263C147.852 129.337 147.731 129.469 147.663 129.676L146.908 129.538Z" fill="white"/>
<path d="M151.745 128.466L151.401 130.561C151.384 130.652 151.344 130.83 151.315 130.921C151.441 130.716 151.476 130.658 151.51 130.619L153.004 128.747L153.056 128.466H153.97L153.325 132.393H152.409L152.758 130.263C152.775 130.143 152.803 130.011 152.832 129.903C152.786 129.982 152.689 130.149 152.643 130.201L151.149 132.077L151.098 132.393H150.182L150.829 128.466H151.745Z" fill="white"/>
<path d="M155.664 128.466L155.408 130.035H155.67C155.962 130.035 156.146 129.982 156.467 129.326C156.638 128.97 156.769 128.73 156.901 128.604C157.015 128.494 157.125 128.466 157.211 128.466H157.948C157.834 128.546 157.737 128.648 157.52 129.01C157.296 129.382 157.314 129.382 157.118 129.702C156.936 130.006 156.822 130.104 156.775 130.143C156.678 130.224 156.552 130.269 156.444 130.292V130.315C156.672 130.356 156.822 130.526 156.89 130.635C156.986 130.784 157.027 130.933 157.062 131.076C157.112 131.305 157.135 131.46 157.17 131.614C157.262 132.062 157.365 132.255 157.463 132.393H156.617C156.535 132.387 156.421 132.341 156.34 132.033C156.295 131.849 156.266 131.632 156.22 131.328C156.186 131.082 156.146 130.916 156.049 130.825C155.962 130.745 155.803 130.704 155.654 130.704H155.299L155.025 132.393H154.109L154.75 128.466H155.664Z" fill="white"/>
<path d="M159.079 131.438C159.205 131.661 159.382 131.753 159.628 131.753C159.845 131.753 160.034 131.684 160.206 131.461C160.476 131.117 160.608 130.414 160.608 129.978C160.608 129.818 160.584 129.567 160.48 129.395C160.4 129.258 160.229 129.097 159.931 129.097C159.686 129.097 159.496 129.207 159.354 129.389C159.085 129.732 158.953 130.437 158.953 130.877C158.953 131.049 158.975 131.256 159.079 131.438ZM161.003 128.725C161.26 128.938 161.558 129.366 161.558 130.082C161.558 130.671 161.346 131.335 161.064 131.713C160.875 131.965 160.412 132.451 159.537 132.451C159.124 132.451 158.753 132.342 158.437 132.017C158.117 131.684 158.003 131.272 158.003 130.785C158.003 130.259 158.112 129.504 158.671 128.942C159.079 128.537 159.485 128.41 159.99 128.41C160.28 128.41 160.658 128.439 161.003 128.725Z" fill="white"/>
<path d="M163.079 130.516H161.722L161.614 131.204H162.971L163.079 130.516Z" fill="white"/>
<path d="M166.22 128.466L166.1 129.187H165.167L164.64 132.393H163.724L164.251 129.187H163.318L163.438 128.466H166.22Z" fill="white"/>
<path d="M169.242 129.187H167.392L167.255 130.035H168.737L168.617 130.704H167.14L166.992 131.659H168.857L168.737 132.393H165.95L166.597 128.466H169.367L169.242 129.187Z" fill="white"/>
<path d="M171.531 130.286L172.493 132.393H171.435L170.822 130.985L169.762 132.393H168.887L170.484 130.356L169.613 128.466H170.672L171.182 129.686L172.099 128.466H172.946L171.531 130.286Z" fill="white"/>
<path d="M174.442 128.466L174.189 130H175.484L175.729 128.466H176.646L176.004 132.393H175.089L175.359 130.722H174.069L173.8 132.393H172.886L173.527 128.466H174.442Z" fill="white"/>
<path d="M178.339 128.466L177.994 130.561C177.979 130.652 177.938 130.83 177.909 130.921C178.035 130.716 178.07 130.658 178.103 130.619L179.598 128.747L179.648 128.466H180.566L179.918 132.393H179.003L179.352 130.263C179.369 130.143 179.398 130.011 179.426 129.903C179.38 129.982 179.282 130.149 179.237 130.201L177.743 132.077L177.691 132.393H176.777L177.423 128.466H178.339Z" fill="white"/>
<path d="M182.102 128.466L181.924 129.531C181.913 129.599 181.901 129.669 181.901 129.737C181.901 129.8 181.907 129.897 181.97 129.971C182.073 130.097 182.263 130.11 182.433 130.11C182.612 130.11 182.858 130.087 183.057 130.064L183.326 128.466H184.244L183.596 132.393H182.681L182.943 130.768C182.72 130.79 182.406 130.807 182.147 130.807C181.907 130.807 181.461 130.79 181.221 130.573C181.107 130.47 180.987 130.275 180.987 129.938C180.987 129.794 181.009 129.651 181.032 129.502L181.21 128.466H182.102Z" fill="white"/>
<path d="M187.665 129.187H185.816L185.679 130.035H187.162L187.042 130.704H185.565L185.417 131.659H187.282L187.162 132.393H184.373L185.022 128.466H187.791L187.665 129.187Z" fill="white"/>
<path d="M190.421 129.939C190.421 129.802 190.392 129.567 190.29 129.389C190.175 129.188 190.015 129.097 189.769 129.097C189.408 129.097 189.215 129.343 189.082 129.612C188.894 130.001 188.801 130.557 188.801 130.929C188.801 131.112 188.83 131.376 188.985 131.554C189.088 131.674 189.248 131.753 189.432 131.753C189.73 131.753 190.106 131.575 190.243 130.975L191.063 131.124C191 131.335 190.903 131.541 190.759 131.742C190.389 132.263 189.947 132.451 189.403 132.451C188.774 132.451 188.402 132.131 188.212 131.891C187.983 131.599 187.852 131.198 187.852 130.77C187.852 130.191 188.045 129.544 188.396 129.103C188.727 128.685 189.19 128.41 189.831 128.41C190.381 128.41 190.697 128.628 190.857 128.793C191.109 129.052 191.24 129.48 191.252 129.842L190.421 129.939Z" fill="white"/>
<path d="M192.969 128.466L192.713 130.035H192.977C193.267 130.035 193.451 129.982 193.771 129.326C193.943 128.97 194.075 128.73 194.206 128.604C194.321 128.494 194.431 128.466 194.516 128.466H195.254C195.14 128.546 195.041 128.648 194.824 129.01C194.601 129.382 194.619 129.382 194.425 129.702C194.241 130.006 194.126 130.104 194.081 130.143C193.983 130.224 193.858 130.269 193.748 130.292V130.315C193.978 130.356 194.126 130.526 194.195 130.635C194.292 130.784 194.332 130.933 194.367 131.076C194.418 131.305 194.441 131.46 194.475 131.614C194.566 132.062 194.671 132.255 194.768 132.393H193.92C193.84 132.387 193.726 132.341 193.646 132.033C193.599 131.849 193.571 131.632 193.525 131.328C193.492 131.082 193.451 130.916 193.353 130.825C193.267 130.745 193.108 130.704 192.959 130.704H192.603L192.329 132.393H191.414L192.055 128.466H192.969Z" fill="white"/>
<path d="M196.747 128.466L196.403 130.561C196.387 130.652 196.346 130.83 196.317 130.921C196.443 130.716 196.478 130.658 196.511 130.619L198.006 128.747L198.056 128.466H198.973L198.325 132.393H197.411L197.76 130.263C197.777 130.143 197.806 130.011 197.833 129.903C197.787 129.982 197.69 130.149 197.645 130.201L196.151 132.077L196.099 132.393H195.184L195.829 128.466H196.747Z" fill="white"/>
<path d="M201.037 127.482C201.031 127.539 201.037 127.624 201.116 127.705C201.168 127.758 201.259 127.808 201.408 127.808C201.494 127.808 201.608 127.79 201.705 127.705C201.791 127.63 201.82 127.545 201.825 127.482H202.529C202.473 127.75 202.318 127.928 202.146 128.042C201.929 128.185 201.631 128.253 201.356 128.253C201.099 128.253 200.773 128.197 200.583 128.037C200.457 127.934 200.337 127.738 200.343 127.482H201.037ZM200.67 128.466L200.326 130.561C200.308 130.652 200.269 130.83 200.24 130.921C200.366 130.716 200.401 130.658 200.434 130.619L201.929 128.747L201.98 128.466H202.897L202.249 132.393H201.333L201.683 130.263C201.699 130.143 201.728 130.011 201.757 129.903C201.712 129.982 201.614 130.149 201.568 130.201L200.074 132.077L200.022 132.393H199.106L199.754 128.466H200.67Z" fill="white"/>
<path d="M205.926 128.466L205.583 130.561C205.566 130.652 205.525 130.83 205.496 130.921C205.622 130.716 205.657 130.658 205.692 130.619L207.184 128.747L207.237 128.466H208.153L207.506 132.393H206.59L206.94 130.263C206.956 130.143 206.985 130.011 207.014 129.903C206.968 129.982 206.871 130.149 206.824 130.201L205.332 132.077L205.279 132.393H204.364L205.01 128.466H205.926Z" fill="white"/>
<path d="M209.837 128.466L209.586 130H210.879L211.125 128.466H212.041L211.4 132.393H210.484L210.753 130.722H209.465L209.196 132.393H208.281L208.921 128.466H209.837Z" fill="white"/>
<path d="M214.867 129.939C214.867 129.802 214.838 129.567 214.735 129.389C214.621 129.188 214.46 129.097 214.214 129.097C213.852 129.097 213.659 129.343 213.527 129.612C213.337 130.001 213.246 130.557 213.246 130.929C213.246 131.112 213.275 131.376 213.43 131.554C213.533 131.674 213.693 131.753 213.876 131.753C214.174 131.753 214.551 131.575 214.688 130.975L215.508 131.124C215.444 131.335 215.347 131.541 215.204 131.742C214.832 132.263 214.391 132.451 213.847 132.451C213.217 132.451 212.845 132.131 212.657 131.891C212.428 131.599 212.297 131.198 212.297 130.77C212.297 130.191 212.491 129.544 212.839 129.103C213.172 128.685 213.635 128.41 214.276 128.41C214.826 128.41 215.14 128.628 215.301 128.793C215.554 129.052 215.684 129.48 215.696 129.842L214.867 129.939Z" fill="white"/>
<path d="M218.897 128.466L218.777 129.187H217.843L217.317 132.393H216.401L216.928 129.187H215.994L216.114 128.466H218.897Z" fill="white"/>
<path d="M220.186 128.466L219.841 130.561C219.826 130.652 219.785 130.83 219.756 130.921C219.882 130.716 219.917 130.658 219.951 130.619L221.444 128.747L221.497 128.466H222.412L221.766 132.393H220.85L221.198 130.263C221.216 130.143 221.245 130.011 221.274 129.903C221.227 129.982 221.129 130.149 221.084 130.201L219.589 132.077L219.539 132.393H218.623L219.27 128.466H220.186Z" fill="white"/>
<path d="M225.586 128.466L225.464 129.187H224.532L224.006 132.393H223.09L223.617 129.187H222.683L222.803 128.466H225.586Z" fill="white"/>
<path d="M226.586 128.468L227.142 130.346H227.157L228.211 128.468H229.059L227.409 131.295C227.084 131.85 226.907 132.04 226.803 132.137C226.528 132.383 226.248 132.451 225.905 132.451C225.728 132.451 225.566 132.429 225.424 132.394L225.539 131.696C225.699 131.742 225.829 131.748 225.887 131.748C226.013 131.748 226.179 131.725 226.322 131.61C226.408 131.535 226.483 131.432 226.522 131.335L225.579 128.468H226.586Z" fill="white"/>
<path d="M231.742 128.466L231.622 129.187H230.688L230.163 132.393H229.246L229.774 129.187H228.841L228.961 128.466H231.742Z" fill="white"/>
</svg>
