<svg width="315" height="206" viewBox="0 0 315 206" fill="none" xmlns="http://www.w3.org/2000/svg">
<path d="M179.624 79.7297V74.2274H183.453C186.999 74.2274 188.937 71.7463 188.937 68.7989C188.937 65.8264 186.999 63.3457 183.453 63.3457H175.559V79.7297H179.624ZM182.91 70.5429H179.624V67.0302H182.91C183.997 67.0302 184.8 67.6687 184.8 68.7989C184.8 69.904 183.997 70.5429 182.91 70.5429ZM198.344 79.7297V67.0302H202.741V63.3457H189.859V67.0302H194.279V79.7297H198.344Z" fill="white"/>
<path d="M83.1138 90.0337V76.387V63.3457H109.775L120.131 73.7075H93.5461V100.471L83.1138 90.0337ZM83.1138 116.137L93.5461 105.696V132.422H120.131L109.775 142.787H83.1138V116.137ZM162.475 142.787H135.817L125.465 132.422H152.049V105.697L162.475 116.137V142.787ZM152.049 100.471V73.7075H125.462L135.817 63.3457H162.475V76.387V90.0337L152.049 100.471Z" fill="white"/>
<path d="M183.896 98.9631L180.974 91.2207H178.469L175.559 98.9631H177.82L178.203 97.8489H181.252L181.635 98.9631H183.896ZM180.707 96.1075H178.736L179.722 93.194L180.707 96.1075ZM190.17 98.9631L188.001 95.9102L190.066 93.3567H187.908L186.204 95.5968V93.3567H184.418V98.9631H186.204V97.6167L186.738 96.9782L187.967 98.9631H190.17ZM195.84 98.9631V95.4578C195.84 93.7163 194.576 93.2173 193.231 93.2173C192.373 93.2173 191.41 93.4728 190.691 94.088L191.329 95.2139C191.782 94.8309 192.361 94.622 192.918 94.622C193.637 94.622 194.054 94.9467 194.054 95.4345V96.1075C193.718 95.6896 193.057 95.4578 192.315 95.4578C191.457 95.4578 190.39 95.8986 190.39 97.2567C190.39 98.522 191.457 99.1026 192.315 99.1026C193.034 99.1026 193.706 98.8237 194.054 98.4059V98.9631H195.84ZM193.057 97.9301C192.582 97.9301 192.164 97.7212 192.164 97.28C192.164 96.8388 192.582 96.6299 193.057 96.6299C193.451 96.6299 193.869 96.7693 194.054 97.0248V97.5239C193.869 97.7907 193.451 97.9301 193.057 97.9301ZM196.698 100.391H198.484V98.9631H201.546V100.391H203.331V97.4077H202.716V93.3567H197.927L197.556 96.0496C197.394 97.2683 197.116 97.4427 196.698 97.4773V100.391ZM199.469 94.9121H200.931V97.4077H198.774C199.064 97.106 199.25 96.6765 199.319 96.1075L199.469 94.9121ZM206.845 99.1026C207.703 99.1026 208.631 98.8587 209.187 98.3596L208.433 97.245C208.12 97.5472 207.436 97.7212 207.042 97.7212C206.23 97.7212 205.743 97.245 205.639 96.7227H209.628V96.3397C209.628 94.436 208.422 93.2173 206.764 93.2173C205.013 93.2173 203.783 94.5288 203.783 96.1541C203.783 97.9763 205.117 99.1026 206.845 99.1026ZM207.923 95.5622H205.616C205.685 95.1556 205.987 94.5987 206.764 94.5987C207.587 94.5987 207.877 95.1673 207.923 95.5622ZM217.559 98.9631V93.3567H215.205L214.034 96.3863L212.863 93.3567H210.509V98.9631H212.295V95.6085L213.582 98.9631H214.498L215.785 95.6085V98.9631H217.559ZM220.563 98.9631L222.65 95.8756V98.9631H224.436V93.3567H222.639L220.644 96.2935V93.3567H218.858V98.9631H220.563ZM227.578 98.9631L228.518 97.1639H229.503V98.9631H231.289V93.3567H227.659C226.361 93.3567 225.619 94.2387 225.619 95.2601C225.619 96.2935 226.256 96.8272 226.79 97.0132L225.584 98.9631H227.578ZM227.972 95.7246C227.636 95.7246 227.428 95.5273 227.428 95.2601C227.428 94.9933 227.648 94.796 227.972 94.796H229.503V95.7246H227.972Z" fill="white"/>
</svg>
